<?xml version="1.0" encoding="utf-8"?>
<!-- Generator: Adobe Illustrator 16.0.0, SVG Export Plug-In . SVG Version: 6.00 Build 0)  -->
<!DOCTYPE svg PUBLIC "-//W3C//DTD SVG 1.1//EN" "http://www.w3.org/Graphics/SVG/1.1/DTD/svg11.dtd">
<svg version="1.1" id="Layer_1" xmlns="http://www.w3.org/2000/svg" xmlns:xlink="http://www.w3.org/1999/xlink" x="0px" y="0px"
	 width="74.167px" height="30.932px" viewBox="0 0 74.167 30.932" enable-background="new 0 0 74.167 30.932" xml:space="preserve">
<path fill="#34495E" d="M74.072,12.877v3.576c0,0.261-0.131,0.521-0.326,0.586c-1.756,0.715-3.771,3.252-5.201,5.657
	c-2.668,4.878-7.739,8.062-13.396,8.062c-1.233,0-2.535-0.193-3.836-0.52c-3.903-1.041-7.155-3.577-9.106-7.153
	c-1.17-2.017-1.818-4.293-1.949-6.567v-1.495c0-1.756-1.434-3.188-3.252-3.188c-1.756,0-3.188,1.433-3.188,3.188v1.495
	c-0.13,2.274-0.781,4.553-1.951,6.566c-2.016,3.576-5.268,6.113-9.17,7.153c-1.235,0.324-2.536,0.521-3.837,0.521
	c-5.593,0-10.73-3.187-13.332-8.062c-1.431-2.406-3.447-4.943-5.203-5.658C0.13,16.974,0,16.713,0,16.453v-3.576
	c0-0.325,0.26-0.648,0.585-0.648H0.91c1.561,0,2.927-1.105,4.097-3.447c0.195-0.325,0.39-0.715,0.585-1.105
	c2.016-3.575,5.268-6.111,9.17-7.152C15.997,0.194,17.298,0,18.597,0c5.073,0,9.756,2.604,12.552,6.766V6.699v0.065
	c0.064,0.129,0.13,0.192,0.26,0.323c0.195,0.325,0.65,0.585,1.235,0.325c1.236-0.91,2.732-1.626,4.359-1.626
	c1.625,0,3.12,0.715,4.422,1.626c0.586,0.26,0.977,0,1.234-0.325c0.063-0.131,0.195-0.194,0.262-0.323V6.699v0.065
	C45.716,2.601,50.333,0,55.471,0c1.303,0,2.536,0.194,3.838,0.521c3.901,1.041,7.153,3.577,9.104,7.152
	c0.26,0.393,0.455,0.718,0.584,1.105c1.367,2.472,2.603,3.447,4.099,3.447h0.325C73.746,12.225,74.072,12.551,74.072,12.877z
	 M28.809,12.681c-1.301-4.685-5.463-8-10.21-8c-0.911,0-1.756,0.13-2.602,0.391c-5.593,1.496-8.844,7.284-7.284,13.007
	c1.235,4.682,5.398,7.999,10.145,7.999c0.911,0,1.756-0.13,2.667-0.324c2.667-0.716,4.877-2.472,6.244-4.941
	C29.198,18.34,29.524,15.478,28.809,12.681z M58.074,5.072c-0.848-0.261-1.758-0.391-2.604-0.391c-4.748,0-8.975,3.315-10.208,8
	c-0.718,2.796-0.392,5.656,0.975,8.129c1.365,2.472,3.644,4.228,6.308,4.941c0.847,0.194,1.756,0.324,2.604,0.324
	c4.748,0,8.976-3.317,10.211-7.999C66.917,12.356,63.6,6.568,58.074,5.072z"/>
</svg>
